<svg xmlns="http://www.w3.org/2000/svg" viewBox="0 0 750 500"><g id="freepik--background-simple--inject-78"><path d="M718.15,295.05c-14.33-42.39-40.39-80.16-74.86-109.69C594.64,143.67,505.54,75.29,423.46,54.64c-120.74-30.39-226.28,56.42-269.21,105.9S32.61,264.72,24.56,312.46s.89,116.33,39.35,133.69H669.42S757.83,412.44,718.15,295.05Z" style="fill:#59D07B"></path><path d="M718.15,295.05c-14.33-42.39-40.39-80.16-74.86-109.69C594.64,143.67,505.54,75.29,423.46,54.64c-120.74-30.39-226.28,56.42-269.21,105.9S32.61,264.72,24.56,312.46s.89,116.33,39.35,133.69H669.42S757.83,412.44,718.15,295.05Z" style="fill:#fff;opacity:0.7000000000000001"></path></g><g id="freepik--Device--inject-78"><rect x="150.65" y="231.01" width="28.95" height="215.02" style="fill:#a8a8a8;stroke:#263238;stroke-miterlimit:10"></rect><rect x="153.63" y="231.01" width="28.95" height="215.02" style="fill:#a8a8a8;stroke:#263238;stroke-miterlimit:10"></rect><rect x="68.47" y="231.01" width="186.13" height="142.61" style="fill:#263238;stroke:#263238;stroke-miterlimit:10"></rect><rect x="72.06" y="231.01" width="186.13" height="142.61" style="fill:#263238;stroke:#fff;stroke-miterlimit:10"></rect><rect x="82.92" y="239.33" width="164.4" height="125.95" style="fill:#fff;stroke:#263238;stroke-miterlimit:10"></rect><rect x="82.92" y="239.33" width="164.4" height="6.63" style="fill:#d6d6d6;stroke:#263238;stroke-miterlimit:10"></rect><path d="M128.76,267s-17.06,6.72-20.17,9.56-4.39,8-4.91,11.64a132.6,132.6,0,0,0-.78,21.72c.52,7.5-1.29,10.35,5.95,16.29s16,15.26,21.21,13.71,20.43-11.64,22.5-15.26,5.17-26.12,4.65-36.72-7.5-14-13.19-17.58S133.94,266.76,128.76,267Z" style="fill:none;stroke:#263238;stroke-miterlimit:10"></path><path d="M127.47,256.93l-.52,4.66s-15.51,6.72-18.87,8.79-2.33,2.84-5.18,3.36-7.24.78-7.24.78" style="fill:none;stroke:#263238;stroke-miterlimit:10"></path><path d="M92.82,277.1l8,2.07s-3.62,15.52-3.11,24.31,1.81,18.88,1.81,18.88l-4.91,4.39" style="fill:none;stroke:#263238;stroke-miterlimit:10"></path><path d="M97.22,330.89l5.94-3.62a42.83,42.83,0,0,0,10.61,9.83,85.41,85.41,0,0,0,13.44,7.5l-.26,5.68" style="fill:none;stroke:#263238;stroke-miterlimit:10"></path><path d="M134.45,350.28l.52-5.94s5.69-2.85,11.38-6.47A123.76,123.76,0,0,0,159,328.05l4.66.25" style="fill:none;stroke:#263238;stroke-miterlimit:10"></path><path d="M164.71,323.39,159,320s2.59-7.5,2.59-19.14-.52-20.69-.52-20.69l4.14-3.36" style="fill:none;stroke:#263238;stroke-miterlimit:10"></path><path d="M162.38,273l-4.13,1.81s-3.11-4.13-12.68-9-11.63-5.17-11.63-5.17l-.26-4.14" style="fill:none;stroke:#263238;stroke-miterlimit:10"></path><path d="M130.87,312.17a15.76,15.76,0,0,0-5.05-8.53,16.8,16.8,0,0,1-3.26-4.56c-3.62-6.72-5.43-11.89-10.6-9.82s-3.88,4.65-3.88,11.11,3.88,15.26,11.12,18.11,13.19,1.81,11.89-5.18C131,312.91,130.94,312.53,130.87,312.17Z" style="fill:none;stroke:#263238;stroke-miterlimit:10"></path><path d="M122.3,326.23s1.29-3.1-5.17-5.43-9,0-7.24,3.62S122.82,329.6,122.3,326.23Z" style="fill:none;stroke:#263238;stroke-miterlimit:10"></path><path d="M137.56,330.37s1-4.39-3.88-5.17-8,2.85-6.47,4.91S135.75,337.1,137.56,330.37Z" style="fill:none;stroke:#263238;stroke-miterlimit:10"></path><path d="M145.83,314.6s-5.69,3.62-4.65,6.46a4.65,4.65,0,0,0,7.5,1.81C151.52,320.55,149.71,311.75,145.83,314.6Z" style="fill:none;stroke:#263238;stroke-miterlimit:10"></path><path d="M150,288.48a12.51,12.51,0,0,1-1.55,5.43c-1.55,2.84-3.62,7-2.07,8s6.46-1,7.5-5.43S153.59,285.12,150,288.48Z" style="fill:none;stroke:#263238;stroke-miterlimit:10"></path><path d="M132.64,274s-6.2.52-8.79,5.17-3.1,12.67,3.1,16,14.49,2.07,17.85-2.58a13.56,13.56,0,0,0,1.29-13.45C144.54,275.81,138.59,272.45,132.64,274Z" style="fill:none;stroke:#263238;stroke-miterlimit:10"></path><ellipse cx="135.75" cy="281.63" rx="5.43" ry="5.3" style="fill:none;stroke:#263238;stroke-miterlimit:10"></ellipse><path d="M205,336s-10.07,2.8-18-1.67-10.75-14.55-10.75-14.55,10.07-2.81,18,1.67S205,336,205,336Z" style="fill:none;stroke:#263238;stroke-miterlimit:10"></path><path d="M206,336s10.07,2.8,18-1.67,10.74-14.55,10.74-14.55-10.06-2.81-18,1.67S206,336,206,336Z" style="fill:none;stroke:#263238;stroke-miterlimit:10"></path><path d="M205.13,313.43s-7.18,2-12.84-1.19-7.67-10.37-7.67-10.37,7.18-2,12.85,1.19S205.13,313.43,205.13,313.43Z" style="fill:none;stroke:#263238;stroke-miterlimit:10"></path><path d="M205.82,313.43s7.19,2,12.85-1.19,7.67-10.37,7.67-10.37-7.18-2-12.85,1.19S205.82,313.43,205.82,313.43Z" style="fill:none;stroke:#263238;stroke-miterlimit:10"></path><path d="M205.17,297.73s-6.49,1.81-11.61-1.08-6.92-9.37-6.92-9.37,6.48-1.81,11.6,1.08S205.17,297.73,205.17,297.73Z" style="fill:none;stroke:#263238;stroke-miterlimit:10"></path><path d="M205.79,297.73s6.49,1.81,11.6-1.08,6.93-9.37,6.93-9.37-6.49-1.81-11.61,1.08S205.79,297.73,205.79,297.73Z" style="fill:none;stroke:#263238;stroke-miterlimit:10"></path><path d="M205.23,282.83s-5.11,1.43-9.15-.85-5.46-7.39-5.46-7.39,5.12-1.43,9.15.85S205.23,282.83,205.23,282.83Z" style="fill:none;stroke:#263238;stroke-miterlimit:10"></path><path d="M205.72,282.83s5.12,1.43,9.15-.85,5.46-7.39,5.46-7.39-5.11-1.43-9.15.85S205.72,282.83,205.72,282.83Z" style="fill:none;stroke:#263238;stroke-miterlimit:10"></path><path d="M205.43,278.09s3.78-3.74,3.81-8.37-3.71-8.41-3.71-8.41-3.77,3.73-3.8,8.36S205.43,278.09,205.43,278.09Z" style="fill:none;stroke:#263238;stroke-miterlimit:10"></path><line x1="205.43" y1="278.09" x2="205.43" y2="348.64" style="fill:none;stroke:#263238;stroke-miterlimit:10"></line></g><g id="freepik--Plants--inject-78"><path d="M310.13,389.71s-2.67-12.74-3.92-26,5.8-25.19,5.8-25.19" style="fill:none;stroke:#263238;stroke-miterlimit:10;stroke-width:2px"></path><path d="M307.91,376s-5.11-20.43-14.54-30.58" style="fill:none;stroke:#263238;stroke-miterlimit:10;stroke-width:2px"></path><path d="M305.81,355.68a20.48,20.48,0,0,0-9.91-2" style="fill:none;stroke:#263238;stroke-miterlimit:10;stroke-width:2px"></path><path d="M305.6,359.91s4.15-5.77,9.35-5.11,6.4,2.55,6.4,2.55" style="fill:none;stroke:#263238;stroke-miterlimit:10;stroke-width:2px"></path><path d="M299.79,353.66A40.69,40.69,0,0,0,297.28,340c-2.69-7.35-8.13-7.67-14.35-7.26s-20.86,2.49-20.86,2.49,8.52,6.4,13.8,11.23,11.39,5.64,15.71,6.44A49.2,49.2,0,0,0,299.79,353.66Z" style="fill:#59D07B;stroke:#263238;stroke-miterlimit:10"></path><path d="M306.31,351.41s-2.33-10.7.13-17.69,9.14-12,15.36-12.37,14.68,0,14.68,0-4.67,10-12.18,17.25S306.31,351.41,306.31,351.41Z" style="fill:#59D07B;stroke:#263238;stroke-miterlimit:10"></path><path d="M299.79,353.66s-3.33-4-11.21-2.67-9.23,9.58-8.52,14-.77,10-.77,10,3.8-2.41,10.78-9.23S296.48,355.4,299.79,353.66Z" style="fill:#59D07B;stroke:#263238;stroke-miterlimit:10"></path><path d="M311.2,355.7s4.31-6.68,9.6-5.44,9.47,1.16,13,6.27,1,19,1,19a33,33,0,0,0-7.44-9C322.88,363.09,316.6,355.73,311.2,355.7Z" style="fill:#59D07B;stroke:#263238;stroke-miterlimit:10"></path><path d="M374.93,391.17s.59-13-.29-26.31-9.76-23.94-9.76-23.94" style="fill:none;stroke:#263238;stroke-miterlimit:10;stroke-width:2px"></path><path d="M374.93,377.27s1.78-21,9.46-32.51" style="fill:none;stroke:#263238;stroke-miterlimit:10;stroke-width:2px"></path><path d="M373.75,356.88a20.36,20.36,0,0,1,9.46-3.55" style="fill:none;stroke:#263238;stroke-miterlimit:10;stroke-width:2px"></path><path d="M374.64,361s-5-5-10.05-3.55-5.91,3.55-5.91,3.55" style="fill:none;stroke:#263238;stroke-miterlimit:10;stroke-width:2px"></path><path d="M379.37,353.92a41,41,0,0,1,.29-13.89c1.48-7.68,6.8-8.86,13-9.46s21-.88,21-.88-7.39,7.68-11.82,13.3-10.34,7.39-14.48,8.87A49.13,49.13,0,0,1,379.37,353.92Z" style="fill:#59D07B;stroke:#263238;stroke-miterlimit:10"></path><path d="M372.57,352.74s.59-10.93-3-17.44-10.93-10.34-17.14-9.75S338,327.91,338,327.91s6.2,9.17,14.78,15.08S372.57,352.74,372.57,352.74Z" style="fill:#59D07B;stroke:#263238;stroke-miterlimit:10"></path><path d="M379.37,353.92s2.66-4.43,10.64-4.43,10.64,8,10.64,12.41,2.36,9.76,2.36,9.76-4.14-1.77-12.12-7.39S382.91,355.11,379.37,353.92Z" style="fill:#59D07B;stroke:#263238;stroke-miterlimit:10"></path><path d="M368.43,357.77s-5.32-5.91-10.34-3.85-9.17,2.66-11.83,8.28,2.07,18.92,2.07,18.92a33,33,0,0,1,5.91-10.05C358.09,366.93,363.11,358.65,368.43,357.77Z" style="fill:#59D07B;stroke:#263238;stroke-miterlimit:10"></path><path d="M341.53,391.46s0-28.67-.88-42-9.76-23.94-9.76-23.94" style="fill:none;stroke:#263238;stroke-miterlimit:10;stroke-width:2px"></path><path d="M340.94,361.9s1.78-21,9.46-32.51" style="fill:none;stroke:#263238;stroke-miterlimit:10;stroke-width:2px"></path><path d="M339.76,341.51a20.48,20.48,0,0,1,9.46-3.55" style="fill:none;stroke:#263238;stroke-miterlimit:10;stroke-width:2px"></path><path d="M340.65,345.65s-5-5-10-3.55-5.91,3.55-5.91,3.55" style="fill:none;stroke:#263238;stroke-miterlimit:10;stroke-width:2px"></path><path d="M345.38,338.56a40.72,40.72,0,0,1,.29-13.9c1.48-7.68,6.8-8.86,13-9.45s21-.89,21-.89-7.39,7.68-11.82,13.3-10.34,7.39-14.48,8.87A49.82,49.82,0,0,1,345.38,338.56Z" style="fill:#59D07B;stroke:#263238;stroke-miterlimit:10"></path><path d="M338.58,337.37s.59-10.93-3-17.44-10.93-10.34-17.14-9.75S304,312.55,304,312.55s6.2,9.16,14.78,15.07S338.58,337.37,338.58,337.37Z" style="fill:#59D07B;stroke:#263238;stroke-miterlimit:10"></path><path d="M345.38,338.56s2.66-4.44,10.64-4.44,10.64,8,10.64,12.42,2.36,9.75,2.36,9.75-4.14-1.77-12.12-7.39S348.92,339.74,345.38,338.56Z" style="fill:#59D07B;stroke:#263238;stroke-miterlimit:10"></path><path d="M334.44,342.4s-5.32-5.91-10.34-3.84-9.17,2.66-11.83,8.27,2.07,18.92,2.07,18.92a33,33,0,0,1,5.91-10.05C324.1,351.56,329.12,343.28,334.44,342.4Z" style="fill:#59D07B;stroke:#263238;stroke-miterlimit:10"></path><path d="M354.12,419.81s-13.49.64-15.41,1.93-8.68,7.06-14.14,9-4.17,6.74,1.29,8.35,8.67-1.61,11.56-2.25,11.89-1,11.89-1Z" style="fill:#a8a8a8;stroke:#263238;stroke-miterlimit:10"></path><path d="M301.13,362h15.1a0,0,0,0,1,0,0v73a4.78,4.78,0,0,1-4.78,4.78H305.9a4.78,4.78,0,0,1-4.78-4.78V362a0,0,0,0,1,0,0Z" style="fill:none;stroke:#263238;stroke-miterlimit:10"></path><path d="M304.25,379.66h8.85a0,0,0,0,1,0,0v53.41a2.8,2.8,0,0,1-2.8,2.8H307a2.8,2.8,0,0,1-2.8-2.8V379.66A0,0,0,0,1,304.25,379.66Z" style="fill:#59D07B;stroke:#263238;stroke-miterlimit:10"></path><path d="M334.21,362h15.1a0,0,0,0,1,0,0v73a4.78,4.78,0,0,1-4.78,4.78H339a4.78,4.78,0,0,1-4.78-4.78V362A0,0,0,0,1,334.21,362Z" style="fill:none;stroke:#263238;stroke-miterlimit:10"></path><path d="M337.33,379.66h8.85a0,0,0,0,1,0,0v53.41a2.8,2.8,0,0,1-2.8,2.8h-3.25a2.8,2.8,0,0,1-2.8-2.8V379.66A0,0,0,0,1,337.33,379.66Z" style="fill:#59D07B;stroke:#263238;stroke-miterlimit:10"></path><path d="M367.29,362h15.1a0,0,0,0,1,0,0v73a4.78,4.78,0,0,1-4.78,4.78h-5.54a4.78,4.78,0,0,1-4.78-4.78V362A0,0,0,0,1,367.29,362Z" style="fill:none;stroke:#263238;stroke-miterlimit:10"></path><path d="M370.42,379.66h8.85a0,0,0,0,1,0,0v53.41a2.8,2.8,0,0,1-2.8,2.8h-3.25a2.8,2.8,0,0,1-2.8-2.8V379.66A0,0,0,0,1,370.42,379.66Z" style="fill:#59D07B;stroke:#263238;stroke-miterlimit:10"></path><rect x="297.59" y="387.37" width="94.43" height="4.18" style="fill:#fff;stroke:#263238;stroke-miterlimit:10"></rect><rect x="389.14" y="378.37" width="4.82" height="67.77" style="fill:#fff;stroke:#263238;stroke-miterlimit:10"></rect><rect x="295.66" y="436.51" width="98.29" height="9.64" style="fill:#fff;stroke:#263238;stroke-miterlimit:10"></rect></g><g id="freepik--Microscope--inject-78"><path d="M554.48,295.1s-3-2.71-7.32,18.25S545,366.8,554,380.91s28.22,24.37,28.22,24.37l13.25-17.1S569.4,379.63,563,354.4s-2.57-41,2.13-41.91,11.59,11.05,11.59,11.05L557.23,286Z" style="fill:#fff;stroke:#263238;stroke-miterlimit:10"></path><path d="M558.28,312.92a3.85,3.85,0,1,0-3.85,3.85A3.85,3.85,0,0,0,558.28,312.92Z" style="fill:#263238;stroke:#263238;stroke-miterlimit:10"></path><path d="M556.85,312.92a2.42,2.42,0,1,0-2.42,2.42A2.42,2.42,0,0,0,556.85,312.92Z" style="fill:#fff;stroke:#263238;stroke-miterlimit:10"></path><polygon points="567.23 263.04 551.02 271.73 552.65 278.65 572.1 268.23 567.23 263.04" style="fill:#fff;stroke:#263238;stroke-miterlimit:10"></polygon><rect x="537.2" y="216.7" width="18.39" height="53.88" transform="translate(-50.28 287.09) rotate(-28.2)" style="fill:#263238;stroke:#263238;stroke-miterlimit:10"></rect><rect x="525.27" y="219.69" width="18.39" height="3.4" transform="translate(-41.18 278.82) rotate(-28.2)" style="fill:#fff;stroke:#263238;stroke-miterlimit:10"></rect><rect x="565.89" y="269.82" width="21.94" height="61.54" transform="translate(-73.57 308.24) rotate(-28.2)" style="fill:#fff;stroke:#263238;stroke-miterlimit:10"></rect><rect x="577.92" y="317.72" width="21.94" height="10.62" transform="translate(-82.75 316.59) rotate(-28.2)" style="fill:#263238;stroke:#263238;stroke-miterlimit:10"></rect><rect x="607.12" y="323.56" width="6.84" height="18.82" transform="translate(-84.88 328.01) rotate(-28.2)" style="fill:#fff;stroke:#263238;stroke-miterlimit:10"></rect><rect x="596.34" y="327.2" width="6.84" height="18.82" transform="translate(-72.41 191) rotate(-17.08)" style="fill:#fff;stroke:#263238;stroke-miterlimit:10"></rect><rect x="617.51" y="315.85" width="6.84" height="18.82" transform="translate(1307.41 183.48) rotate(140.68)" style="fill:#fff;stroke:#263238;stroke-miterlimit:10"></rect><rect x="588.76" y="320.35" width="34.21" height="5.99" transform="translate(-80.88 324.65) rotate(-28.2)" style="fill:#fff;stroke:#263238;stroke-miterlimit:10"></rect><rect x="588" y="360.98" width="54.52" height="4.31" transform="translate(-98.57 333.81) rotate(-28.2)" style="fill:#263238;stroke:#263238;stroke-miterlimit:10"></rect><polygon points="651.8 385.97 617.18 400.99 613.62 391.62 648.24 376.6 651.8 385.97" style="fill:#263238;stroke:#263238;stroke-miterlimit:10"></polygon><rect x="595.87" y="373.97" width="11.97" height="6.84" transform="translate(-106.9 329.18) rotate(-28.2)" style="fill:#fff;stroke:#263238;stroke-miterlimit:10"></rect><circle cx="560.4" cy="291.93" r="11.55" transform="translate(-42.29 481.76) rotate(-45)" style="fill:#263238;stroke:#263238;stroke-miterlimit:10"></circle><path d="M566.31,288.76a6.71,6.71,0,1,0-2.74,9.08A6.69,6.69,0,0,0,566.31,288.76Z" style="fill:#fff;stroke:#263238;stroke-miterlimit:10"></path><path d="M605.46,396.43l18.54-8a3.4,3.4,0,0,1,4.53,1.86h0a3.4,3.4,0,0,1-1.62,4.31l-19.8,10.08Z" style="fill:#fff;stroke:#263238;stroke-miterlimit:10"></path><path d="M598.48,385.61h.89a8,8,0,0,1,7.24,4.63l6.45,13.89a3.39,3.39,0,0,1-3.43,4.8l-2.17-.23Z" style="fill:#fff;stroke:#263238;stroke-miterlimit:10"></path><path d="M593.36,381.45,563,426.24h59.86L607.46,408.7l-9.36-26.64A2.68,2.68,0,0,0,593.36,381.45Z" style="fill:#fff;stroke:#263238;stroke-miterlimit:10"></path><path d="M598.05,391.6a3.85,3.85,0,1,0-3.85,3.85A3.85,3.85,0,0,0,598.05,391.6Z" style="fill:#fff;stroke:#263238;stroke-miterlimit:10"></path><path d="M558.78,424.76H673.09a4.23,4.23,0,0,1,4.23,4.23V445.7a0,0,0,0,1,0,0H554.55a0,0,0,0,1,0,0V429A4.23,4.23,0,0,1,558.78,424.76Z" style="fill:#fff;stroke:#263238;stroke-miterlimit:10"></path></g><g id="freepik--Bottle--inject-78"><path d="M95.37,381.19V338.34H71.18v42.85a33.61,33.61,0,1,0,24.19,0Z" style="fill:#fff;stroke:#263238;stroke-miterlimit:10"></path><path d="M60.33,399.18a26.91,26.91,0,1,0,45.89,0Z" style="fill:#59D07B;stroke:#263238;stroke-miterlimit:10"></path><path d="M80.65,406.23A3.65,3.65,0,1,1,77,402.58,3.64,3.64,0,0,1,80.65,406.23Z" style="fill:#59D07B;stroke:#263238;stroke-miterlimit:10"></path><path d="M99.87,411.58a2.44,2.44,0,1,1-2.44-2.43A2.44,2.44,0,0,1,99.87,411.58Z" style="fill:#59D07B;stroke:#263238;stroke-miterlimit:10"></path><path d="M80.16,422.65a1.58,1.58,0,1,1-1.58-1.58A1.58,1.58,0,0,1,80.16,422.65Z" style="fill:#59D07B;stroke:#263238;stroke-miterlimit:10"></path><path d="M87.46,415.6a2.07,2.07,0,1,1-2.07-2.07A2.06,2.06,0,0,1,87.46,415.6Z" style="fill:#59D07B;stroke:#263238;stroke-miterlimit:10"></path><line x1="75.54" y1="356.85" x2="75.54" y2="381.42" style="fill:none;stroke:#263238;stroke-miterlimit:10"></line><line x1="75.54" y1="344.69" x2="75.54" y2="351.75" style="fill:none;stroke:#263238;stroke-miterlimit:10"></line><path d="M59.74,394.4a30.4,30.4,0,0,0,6.83,44.1" style="fill:none;stroke:#263238;stroke-miterlimit:10"></path><path d="M72,385.17a30.35,30.35,0,0,0-7.6,4.53" style="fill:none;stroke:#263238;stroke-miterlimit:10"></path><path d="M96.34,340.31H70.07a1.58,1.58,0,0,1-1.58-1.58h0a1.58,1.58,0,0,1,1.58-1.58H96.34a1.58,1.58,0,0,1,1.58,1.58h0A1.58,1.58,0,0,1,96.34,340.31Z" style="fill:#fff;stroke:#263238;stroke-miterlimit:10"></path></g><g id="freepik--Table--inject-78"><line x1="123.82" y1="446.15" x2="701.89" y2="446.15" style="fill:none;stroke:#263238;stroke-miterlimit:10"></line><line x1="25.94" y1="446.15" x2="115.77" y2="446.15" style="fill:none;stroke:#263238;stroke-miterlimit:10"></line></g></svg>