<?xml version="1.0" encoding="UTF-8" standalone="no"?><!-- Generator: Gravit.io --><svg xmlns="http://www.w3.org/2000/svg" xmlns:xlink="http://www.w3.org/1999/xlink" style="isolation:isolate" viewBox="0 0 512 512" width="512pt" height="512pt"><defs><clipPath id="_clipPath_bZ4UMtWMagCkExnlkRfyrdGRi7NrikZ9"><rect width="512" height="512"/></clipPath></defs><g clip-path="url(#_clipPath_bZ4UMtWMagCkExnlkRfyrdGRi7NrikZ9)"><g><rect x="186.781" y="131.626" width="138.438" height="248.748" transform="matrix(1,0,0,1,0,0)" fill="rgb(255,95,0)"/><path d=" M 195.571 256 C 195.571 205.459 219.303 160.632 255.78 131.626 C 228.972 110.53 195.131 97.785 158.215 97.785 C 70.757 97.785 0 168.542 0 256 C 0 343.458 70.757 414.215 158.215 414.215 C 195.131 414.215 228.972 401.47 255.78 380.374 C 219.303 351.808 195.571 306.541 195.571 256 Z " fill="rgb(235,0,27)"/><path d=" M 512 256 C 512 343.458 441.243 414.215 353.785 414.215 C 316.869 414.215 283.028 401.47 256.22 380.374 C 293.136 351.368 316.429 306.541 316.429 256 C 316.429 205.459 292.697 160.632 256.22 131.626 C 283.028 110.53 316.869 97.785 353.785 97.785 C 441.243 97.785 512 168.982 512 256 Z " fill="rgb(247,158,27)"/></g></g></svg>